HIERARCHY
ROOT hip
{
	OFFSET 0.000000 0.000000 0.000000 
	CHANNELS 6 Xposition Yposition Zposition Zrotation Yrotation Xrotation
	JOINT abdomen
	{
		OFFSET 0.000000 20.688101 -0.731520 
		CHANNELS 3 Zrotation Xrotation Yrotation
		JOINT chest
		{
			OFFSET 0.000000 11.704300 -0.487680 
			CHANNELS 3 Zrotation Xrotation Yrotation
			JOINT neck
			{
				OFFSET 0.000000 22.189400 -2.194560 
				CHANNELS 3 Zrotation Xrotation Yrotation
				JOINT head
				{
					OFFSET -0.243840 7.071330 1.219200 
					CHANNELS 3 Zrotation Xrotation Yrotation
					JOINT leftEye
					{
						OFFSET 4.145280 8.046740 8.046720 
						CHANNELS 3 Zrotation Xrotation Yrotation
						End Site
						{
							OFFSET 1.000000 0.000000 0.000000 
						}
					}
					JOINT rightEye
					{
						OFFSET -3.657600 8.046740 8.046720 
						CHANNELS 3 Zrotation Xrotation Yrotation
						End Site
						{
							OFFSET 1.000000 0.000000 0.000000 
						}
					}
				}
			}
			JOINT rCollar
			{
				OFFSET -2.682240 19.263399 -4.876800 
				CHANNELS 3 Zrotation Xrotation Yrotation
				JOINT rShldr
				{
					OFFSET -8.778240 -1.950730 1.463040 
					CHANNELS 3 Zrotation Xrotation Yrotation
					JOINT rForeArm
					{
						OFFSET -28.174200 -1.711500 0.487680 
						CHANNELS 3 Zrotation Xrotation Yrotation
						JOINT rHand
						{
							OFFSET -22.587900 0.773209 7.071360 
							CHANNELS 3 Zrotation Xrotation Yrotation
							JOINT rThumb1
							{
								OFFSET -1.219200 -0.487915 3.413760 
								CHANNELS 3 Zrotation Xrotation Yrotation
								JOINT rThumb2
								{
									OFFSET -3.370350 -0.524490 3.413760 
									CHANNELS 3 Zrotation Xrotation Yrotation
									End Site
									{
										OFFSET -1.782710 -1.182140 1.430490 
									}
								}
							}
							JOINT rIndex1
							{
								OFFSET -7.759470 0.938293 5.608320 
								CHANNELS 3 Zrotation Xrotation Yrotation
								JOINT rIndex2
								{
									OFFSET -2.540570 -0.884171 1.565380 
									CHANNELS 3 Zrotation Xrotation Yrotation
									End Site
									{
										OFFSET -1.625190 -0.234802 1.165020 
									}
								}
							}
							JOINT rMid1
							{
								OFFSET -8.247140 1.182130 3.413760 
								CHANNELS 3 Zrotation Xrotation Yrotation
								JOINT rMid2
								{
									OFFSET -3.101650 -0.590103 1.064700 
									CHANNELS 3 Zrotation Xrotation Yrotation
									End Site
									{
										OFFSET -2.485470 -0.328903 0.837420 
									}
								}
							}
							JOINT rRing1
							{
								OFFSET -8.828220 0.546677 1.516780 
								CHANNELS 3 Zrotation Xrotation Yrotation
								JOINT rRing2
								{
									OFFSET -2.609340 -0.819778 -0.019849 
									CHANNELS 3 Zrotation Xrotation Yrotation
									End Site
									{
										OFFSET -2.338420 -0.294052 0.168128 
									}
								}
							}
							JOINT rPinky1
							{
								OFFSET -8.272020 -0.047791 -0.458400 
								CHANNELS 3 Zrotation Xrotation Yrotation
								JOINT rPinky2
								{
									OFFSET -1.827340 -0.647385 -0.700984 
									CHANNELS 3 Zrotation Xrotation Yrotation
									End Site
									{
										OFFSET -1.692250 -0.517670 -0.607171 
									}
								}
							}
						}
					}
				}
			}
			JOINT lCollar
			{
				OFFSET 2.682240 19.263399 -4.876800 
				CHANNELS 3 Zrotation Xrotation Yrotation
				JOINT lShldr
				{
					OFFSET 8.778240 -1.950730 1.463040 
					CHANNELS 3 Zrotation Xrotation Yrotation
					JOINT lForeArm
					{
						OFFSET 28.174200 -1.711500 0.487680 
						CHANNELS 3 Zrotation Xrotation Yrotation
						JOINT lHand
						{
							OFFSET 22.587900 0.773209 7.071360 
							CHANNELS 3 Zrotation Xrotation Yrotation
							JOINT lThumb1
							{
								OFFSET 1.219200 -0.487915 3.413760 
								CHANNELS 3 Zrotation Xrotation Yrotation
								JOINT lThumb2
								{
									OFFSET 3.370350 -0.524490 3.413760 
									CHANNELS 3 Zrotation Xrotation Yrotation
									End Site
									{
										OFFSET 1.782710 -1.182140 1.430490 
									}
								}
							}
							JOINT lIndex1
							{
								OFFSET 7.759470 0.938293 5.608320 
								CHANNELS 3 Zrotation Xrotation Yrotation
								JOINT lIndex2
								{
									OFFSET 2.540570 -0.884171 1.565380 
									CHANNELS 3 Zrotation Xrotation Yrotation
									End Site
									{
										OFFSET 1.625190 -0.234802 1.165020 
									}
								}
							}
							JOINT lMid1
							{
								OFFSET 8.247140 1.182130 3.413760 
								CHANNELS 3 Zrotation Xrotation Yrotation
								JOINT lMid2
								{
									OFFSET 3.101650 -0.590103 1.064700 
									CHANNELS 3 Zrotation Xrotation Yrotation
									End Site
									{
										OFFSET 2.485470 -0.328903 0.837420 
									}
								}
							}
							JOINT lRing1
							{
								OFFSET 8.828220 0.546677 1.516780 
								CHANNELS 3 Zrotation Xrotation Yrotation
								JOINT lRing2
								{
									OFFSET 2.609340 -0.819778 -0.019849 
									CHANNELS 3 Zrotation Xrotation Yrotation
									End Site
									{
										OFFSET 2.338420 -0.294052 0.168128 
									}
								}
							}
							JOINT lPinky1
							{
								OFFSET 8.272020 -0.047791 -0.458400 
								CHANNELS 3 Zrotation Xrotation Yrotation
								JOINT lPinky2
								{
									OFFSET 1.827340 -0.647385 -0.700984 
									CHANNELS 3 Zrotation Xrotation Yrotation
									End Site
									{
										OFFSET 1.692250 -0.517670 -0.607171 
									}
								}
							}
						}
					}
				}
			}
		}
	}
	JOINT rButtock
	{
		OFFSET -8.778240 4.350840 1.219200 
		CHANNELS 3 Zrotation Xrotation Yrotation
		JOINT rThigh
		{
			OFFSET 0.000000 -1.706870 -2.194560 
			CHANNELS 3 Zrotation Xrotation Yrotation
			JOINT rShin
			{
				OFFSET 0.000000 -36.819901 0.731520 
				CHANNELS 3 Zrotation Xrotation Yrotation
				JOINT rFoot
				{
					OFFSET 0.731520 -45.110401 -5.120640 
					CHANNELS 3 Zrotation Xrotation Yrotation
					End Site
					{
						OFFSET -1.122100 -3.699640 12.103000 
					}
				}
			}
		}
	}
	JOINT lButtock
	{
		OFFSET 8.778240 4.350840 1.219200 
		CHANNELS 3 Zrotation Xrotation Yrotation
		JOINT lThigh
		{
			OFFSET 0.000000 -1.706870 -2.194560 
			CHANNELS 3 Zrotation Xrotation Yrotation
			JOINT lShin
			{
				OFFSET 0.000000 -36.819901 0.731520 
				CHANNELS 3 Zrotation Xrotation Yrotation
				JOINT lFoot
				{
					OFFSET -0.731520 -45.110401 -5.120640 
					CHANNELS 3 Zrotation Xrotation Yrotation
					End Site
					{
						OFFSET 1.122100 -3.699640 12.103000 
					}
				}
			}
		}
	}
}
MOTION
Frames: 4
Frame Time: 0.008333
53.138901 84.889801 215.925003 184.391998 -9.521400 174.261002 -4.116590 2.593690 0.542884 3.873830 -5.931030 0.552534 -7.620280 15.936700 -5.789910 13.309000 -35.431099 -7.749970 -0.000000 0.000000 0.000000 -0.000000 0.000000 0.000000 -0.000000 0.000000 0.000000 78.033302 6.231440 -13.677500 -13.756300 -6.759410 25.064899 -0.530953 20.247499 2.971700 0.000000 0.000000 -0.000000 0.000000 0.000000 -0.000000 0.000000 0.000000 -0.000000 7.730910 5.474880 0.417314 0.000000 0.000000 -0.000000 2.905540 0.965183 0.102902 0.000000 0.000000 -0.000000 10.278600 0.731801 0.025912 0.000000 0.000000 -0.000000 2.221670 -0.733487 -0.208920 -0.000000 0.000000 0.000000 -72.315300 -11.278900 22.550699 15.356000 -8.102410 -28.324600 0.065007 7.283630 -1.029190 0.000000 0.000000 0.000000 0.000000 0.000000 0.000000 0.000000 0.000000 0.000000 -7.730910 5.474880 -0.417314 0.000000 0.000000 0.000000 -2.905540 0.965183 -0.102902 0.000000 0.000000 0.000000 -10.278600 0.731801 -0.025912 0.000000 0.000000 0.000000 -2.221670 -0.733487 0.208920 -0.000000 0.000000 -0.000000 7.622290 -20.075701 7.182040 -0.225520 33.299400 0.044645 -5.310730 -14.501500 -14.649300 0.000000 0.000000 0.000000 6.804140 17.916500 -21.192600 0.100311 14.029600 -0.229474 4.375250 -20.477900 9.040300 
53.273800 84.962196 215.427002 184.337006 -10.008300 174.412994 -4.173430 2.629230 0.467772 3.896960 -5.874390 0.535079 -7.399980 15.728100 -5.862690 12.978600 -34.786201 -8.017830 -0.000000 0.000000 0.000000 -0.000000 0.000000 0.000000 -0.000000 0.000000 -0.000000 77.957802 6.060770 -13.511400 -13.706500 -6.720090 24.965099 -0.532821 20.281799 2.977180 0.000000 0.000000 -0.000000 0.000000 0.000000 -0.000000 0.000000 0.000000 -0.000000 7.730910 5.474880 0.417314 0.000000 0.000000 -0.000000 2.905540 0.965183 0.102902 0.000000 0.000000 -0.000000 10.278600 0.731801 0.025912 0.000000 0.000000 -0.000000 2.221670 -0.733487 -0.208920 -0.000000 0.000000 -0.000000 -73.212601 -10.924600 22.203800 15.320700 -8.071110 -28.251301 0.074075 7.777420 -1.099780 0.000000 0.000000 0.000000 0.000000 0.000000 0.000000 0.000000 0.000000 0.000000 -7.730910 5.474880 -0.417314 0.000000 0.000000 0.000000 -2.905540 0.965183 -0.102902 0.000000 0.000000 0.000000 -10.278600 0.731801 -0.025912 0.000000 0.000000 0.000000 -2.221670 -0.733487 0.208920 -0.000000 0.000000 -0.000000 7.722870 -19.498199 7.258790 -0.222386 33.194500 0.046179 -5.505540 -14.891900 -14.943200 0.000000 0.000000 0.000000 6.936180 17.694201 -20.593100 0.112597 14.830600 -0.216649 3.697340 -19.752800 7.727470 
53.522900 85.001900 214.906006 184.220001 -9.965800 174.496002 -4.169180 2.635900 0.400462 3.906730 -5.829650 0.521150 -7.192130 15.516700 -5.935130 12.687300 -34.072300 -8.280060 -0.000000 0.000000 0.000000 -0.000000 0.000000 0.000000 0.000000 -0.000000 -0.000000 77.900200 5.840030 -13.330800 -13.649700 -6.675330 24.851801 -0.537151 20.362101 2.989990 -0.000000 0.000000 -0.000000 -0.000000 0.000000 -0.000000 -0.000000 0.000000 -0.000000 7.730910 5.474880 0.417314 -0.000000 0.000000 -0.000000 2.905540 0.965183 0.102902 -0.000000 0.000000 -0.000000 10.278600 0.731801 0.025912 -0.000000 0.000000 -0.000000 2.221670 -0.733487 -0.208920 0.000000 -0.000000 -0.000000 -74.095100 -10.504500 21.834900 15.289300 -8.043310 -28.186100 0.085147 8.314920 -1.176890 -0.000000 -0.000000 -0.000000 -0.000000 -0.000000 -0.000000 -0.000000 -0.000000 -0.000000 -7.730910 5.474880 -0.417314 -0.000000 -0.000000 -0.000000 -2.905540 0.965183 -0.102902 -0.000000 -0.000000 -0.000000 -10.278600 0.731801 -0.025912 -0.000000 -0.000000 -0.000000 -2.221670 -0.733487 0.208920 -0.000000 0.000000 -0.000000 7.917000 -18.941401 7.420740 -0.218048 33.049500 0.043376 -5.705400 -15.256500 -15.274500 0.000000 0.000000 0.000000 7.117090 17.326500 -19.937500 0.125971 15.794100 -0.204652 3.011460 -18.984600 6.334480 
53.705601 85.062401 214.369995 184.207993 -10.071400 174.171005 -3.985130 2.560000 0.339420 3.885590 -5.829750 0.511429 -7.086780 15.332800 -6.004670 12.547800 -33.289799 -8.503110 -0.000000 0.000000 0.000000 -0.000000 0.000000 0.000000 0.000000 -0.000000 -0.000000 77.863098 5.634890 -13.218100 -13.612700 -6.646090 24.777901 -0.539390 20.403601 2.996600 -0.000000 0.000000 -0.000000 -0.000000 0.000000 -0.000000 -0.000000 0.000000 -0.000000 7.730910 5.474880 0.417314 -0.000000 0.000000 -0.000000 2.905540 0.965183 0.102902 -0.000000 0.000000 -0.000000 10.278600 0.731801 0.025912 -0.000000 0.000000 -0.000000 2.221670 -0.733487 -0.208920 0.000000 -0.000000 -0.000000 -74.971802 -10.008300 21.458000 15.264700 -8.021590 -28.135300 0.095702 8.789630 -1.245180 -0.000000 -0.000000 -0.000000 -0.000000 -0.000000 -0.000000 -0.000000 -0.000000 -0.000000 -7.730910 5.474880 -0.417314 -0.000000 -0.000000 -0.000000 -2.905540 0.965183 -0.102902 -0.000000 -0.000000 -0.000000 -10.278600 0.731801 -0.025912 -0.000000 -0.000000 -0.000000 -2.221670 -0.733487 0.208920 -0.000000 0.000000 -0.000000 8.261890 -18.504299 7.608740 -0.212057 32.854301 0.033620 -5.867740 -15.517700 -15.592000 0.000000 0.000000 0.000000 7.426790 16.700500 -19.255899 0.139549 16.943300 -0.193784 2.335900 -18.152100 4.900380 
